<svg xmlns="http://www.w3.org/2000/svg" width="130" height="39" viewBox="0 0 130 39">
    <g fill="none" fill-rule="evenodd">
        <path fill="#E5702A" d="M111.982 36.767l-5.031-5.643-4.984 5.643H91.482l10.25-11.52-10.25-11.519h10.814l5.078 5.596 4.889-5.596h10.438L112.498 25.2l10.343 11.566h-10.86M71.337 36.767V.475h20.145v8.09H79.87v5.163h11.612v7.783H79.87v7.143h11.612v8.113H71.337"/>
        <path fill="#472F91" d="M62.84.475v14.853h-.093c-1.881-2.163-4.232-2.916-6.958-2.916-5.588 0-9.796 3.8-11.272 8.82-1.686-5.532-6.03-8.922-12.472-8.922-5.232 0-9.362 2.348-11.518 6.174v-4.756H9.713V8.565h11.8V.475H.073v36.292h9.64V21.51h9.607a14.462 14.462 0 0 0-.44 3.587c0 7.57 5.784 12.882 13.165 12.882 6.206 0 10.297-2.914 12.46-8.226h-8.26c-1.118 1.597-1.966 2.07-4.2 2.07-2.59 0-4.823-2.259-4.823-4.939h16.82c.73 6.012 5.413 11.198 11.84 11.198 2.774 0 5.313-1.363 6.865-3.668h.094v2.352h8.496V.475h-8.496zM27.49 21.62c.536-2.303 2.323-3.81 4.555-3.81 2.457 0 4.154 1.46 4.6 3.81H27.49zm30.193 9.623c-3.132 0-5.078-2.92-5.078-5.967 0-3.258 1.692-6.39 5.078-6.39 3.511 0 4.908 3.132 4.908 6.39 0 3.089-1.481 5.967-4.908 5.967z"/>
        <path fill="#E5702A" d="M125.166 34.429a2.332 2.332 0 0 1 2.34-2.33 2.326 2.326 0 0 1 2.327 2.33 2.326 2.326 0 0 1-2.328 2.339 2.332 2.332 0 0 1-2.339-2.34zm4.258 0a1.92 1.92 0 0 0-1.919-1.92c-1.068 0-1.93.864-1.93 1.92 0 1.067.862 1.93 1.93 1.93a1.922 1.922 0 0 0 1.919-1.93zm-2.416.154v1.187h-.428v-2.745h.889c.502 0 1.024.138 1.024.758 0 .315-.193.565-.56.64v.013c.38.075.422.242.466.54.037.258.069.544.162.794h-.547c-.03-.154-.074-.329-.093-.492-.031-.235-.031-.453-.155-.583-.106-.112-.248-.1-.398-.112h-.36zm.453-.426c.405-.014.497-.182.497-.393 0-.204-.092-.31-.433-.31h-.517v.703h.453z"/>
    </g>
</svg>
