<svg xmlns="http://www.w3.org/2000/svg" width="177" height="178" viewBox="0 0 177 178">
    <path fill="#115CAA" fill-rule="evenodd" d="M88.475 11.062c-42.77 0-77.44 34.692-77.44 77.474 0 42.783 34.67 77.469 77.44 77.469 42.766 0 77.441-34.686 77.441-77.469 0-1.676-.387-3.237-.498-4.88l10.205-9.917c.808 4.825 1.328 9.745 1.328 14.797 0 48.903-39.612 88.537-88.476 88.537S0 137.439 0 88.536C0 39.634 39.611 0 88.475 0c22.43 0 42.833 8.411 58.438 22.174l-8.135 7.908c-13.558-11.698-30.99-19.02-50.303-19.02m86.915 31.433L98.15 119.332c-.117.15-.078.354-.2.487-1.106 1.107-2.556 1.583-4.017 1.55-1.467.05-2.939-.415-4.062-1.539-.16-.144-.11-.393-.238-.57L56.955 86.754a5.434 5.434 0 0 1 0-7.714 5.491 5.491 0 0 1 7.752 0l29.186 29.042 73.717-73.324a5.508 5.508 0 0 1 7.775 0 5.446 5.446 0 0 1 .005 7.737"/>
</svg>
