<svg xmlns="http://www.w3.org/2000/svg" width="110" height="46" viewBox="0 0 110 46">
    <g fill="#6772E5" fill-rule="evenodd">
        <path d="M110 23.377c0-7.864-3.813-14.07-11.1-14.07-7.318 0-11.746 6.206-11.746 14.008 0 9.247 5.227 13.916 12.73 13.916 3.659 0 6.426-.83 8.517-1.997V29.09c-2.09 1.045-4.49 1.69-7.533 1.69-2.983 0-5.627-1.045-5.966-4.67h15.037c0-.399.061-1.996.061-2.733zm-15.19-2.919c0-3.47 2.122-4.914 4.059-4.914 1.876 0 3.874 1.443 3.874 4.914H94.81zM75.815 9.308c-3.015 0-4.953 1.416-6.03 2.4l-.4-1.908h-6.77v35.892l7.693-1.631.03-8.712c1.108.8 2.739 1.94 5.447 1.94 5.507 0 10.523-4.433 10.523-14.19C86.277 14.17 81.2 9.307 75.815 9.307zM73.97 30.517c-1.815 0-2.892-.647-3.63-1.447l-.031-11.42c.8-.893 1.907-1.509 3.661-1.509 2.8 0 4.739 3.14 4.739 7.173 0 4.124-1.908 7.203-4.739 7.203zM51.615 7.615l7.616-1.6V0l-7.616 1.57zM51.615 10.154h7.615v26.231h-7.615zM43.523 12.733l-.492-2.263h-6.646v26.76h7.692V19.096c1.815-2.355 4.892-1.927 5.846-1.59V10.47c-.985-.367-4.585-1.04-6.4 2.263zM28.797 3.385L21.185 4.97l-.031 24.424c0 4.513 3.462 7.837 8.08 7.837 2.557 0 4.429-.458 5.458-1.006v-6.19c-.998.396-5.927 1.799-5.927-2.714V16.496h5.927v-6.495h-5.927l.032-6.616zM7.754 17.623c0-1.196.98-1.657 2.605-1.657 2.33 0 5.272.706 7.6 1.964v-7.21c-2.543-1.013-5.056-1.412-7.6-1.412C4.137 9.308 0 12.56 0 17.99c0 8.47 11.646 7.12 11.646 10.77 0 1.412-1.226 1.873-2.942 1.873-2.544 0-5.792-1.044-8.367-2.455v7.303a21.224 21.224 0 0 0 8.367 1.749c6.375 0 10.758-3.16 10.758-8.653-.031-9.144-11.708-7.518-11.708-10.955z"/>
    </g>
</svg>
