<svg xmlns="http://www.w3.org/2000/svg" width="117" height="52" viewBox="0 0 117 52">
    <g fill="none" fill-rule="nonzero">
        <path fill="#626082" d="M14.482 37.078v-.372l-.093-.466-.093-.465-.093-.652-.093-.651-.093-.745-.093-.745-.094-.652-.092-.651-.093-.558-.093-.373v-.372l-.187-.652v-.651l-.092-.559-.094-.465v-.56l-.093-.464h-.093l-.093.559-.093.557-.186.559-.187.652-.185.652v.093l-.094.279-.093.372-.186.466-.186.652-.186.65-.28.653-.186.744-.186.652-.279.65-.186.653-.094.466-.185.372-.094.279v.093h-2.7v-.093l-.092-.28-.094-.37-.186-.56-.186-.652-.28-.651-.465-1.397-.186-.651-.186-.558-.186-.56-.186-.371v-.28l-.093-.094-.093-.557-.187-.466-.279-1.024-.093-.559-.186-.465v-.465h-.094v.559l-.092.651-.093.558v.559l-.094.652-.093.557v.094l-.093.372v.466l-.092.558-.094.653-.093.743-.093.745-.093.745-.093.652-.093 1.024v.372l-.093.093h-2.7l2.141-14.056H5.64v.093l.093.28.187.372.185.465.187.652.465 1.396.372 1.396.28.652.186.652.372 1.117v.093l.186.652.187.558.185.559.094.65.186.56.186-.56.094-.65.185-.56.187-.557.186-.56v-.092l.093-.279.093-.373.186-.558.28-.559.186-.745.186-.651.28-.745.278-.745.186-.651.186-.56.187-.557.093-.372.093-.28.093-.093h3.165l2.141 14.056h-2.886zm9.588-2.14v2.327h.28l.465-.095h.372l.466-.185.372-.093.373-.186.372-.186.372-.28.28-.28.372-.278.186-.279.28-.373.278-.372.186-.373.094-.372.186-.466.093-.465.093-.466.093-.465v-1.024l-.093-.466-.093-.557-.093-.466-.093-.465-.187-.373-.186-.372-.279-.28-.186-.372-.28-.186-.278-.28-.373-.185-.279-.186-.373-.187-.372-.092-.465-.187h-.372l-.466-.093h-.745v2.327h.559l.465.186.372.187.28.28.279.37.186.374.094.557.093.56.092.651-.092.558-.093.56-.094.464-.186.466-.28.372-.185.28-.373.186-.372.186-.28.093h-.465zM24.07 28.607V26.28h-.186l-.465.093-.466.093-.465.094-.372.185-.373.187-.372.186-.372.28-.28.186-.279.278-.279.373-.28.28-.186.37-.186.374-.186.465-.093.373-.186.464-.094.466v2.048l.094.56.093.464.186.373.186.465.186.279.186.373.28.28.279.278.279.28.28.186.372.186.372.186.373.093.372.092.465.095h1.117v-2.328h-.372l-.465-.093-.373-.186-.279-.186-.279-.28-.186-.372-.187-.466-.092-.464-.094-.56v-1.303l.186-.558.187-.558.186-.373.372-.372.28-.28.372-.186.372-.093h.372zm24.296 6.516v2.142h1.582l.559-.095.559-.092.465-.186.558-.093.466-.186v-.56l-.187-1.023v-.558l-.558.186-.466.186-.557.186-.466.093h-1.955zm0-4.747v1.862h4.468l.093-.466v-1.675l-.093-.466-.093-.372-.186-.373-.093-.372-.187-.373-.279-.372-.186-.28-.28-.278-.371-.186-.372-.28-.373-.093-.466-.186-.372-.093-.558-.093h-.652v2.048l.093-.093.559.093.372.186.372.28.28.465.186.465v.652h-1.862z"/>
        <path fill="#626082" d="M48.366 28.328V26.28h-.279l-.466.093-.465.093-.466.094-.372.185-.373.187-.372.279-.279.186-.279.28-.28.372-.279.279-.186.372-.186.466-.186.372-.093.466-.094.465-.092.466v2.047l.092.465.094.466.093.372.186.373.186.372.186.373.186.279.28.279.279.279.28.187.372.186.372.186.373.186.372.093.465.092.372.095h.559v-2.142l-.186-.093-.466-.093-.372-.279-.279-.186-.28-.373-.185-.372-.187-.466-.093-.465v-.558h2.048v-1.862H46.41l.094-.652.185-.465.373-.373.372-.372.466-.186h.465zm6.143.093l-.185-.28-.094-.28v-.65l.094-.28.093-.279h.558l.466-.092h.558l.559-.094h2.048v.652l-.093.744-.094.745.187-.372.279-.466.279-.372.28-.372.371-.28.374-.185.465-.187.559-.093h.557v.372l-.092.932v1.396l-.465-.094h-.374l-.371.094-.374.093-.279.186-.185.186-.28.279-.186.373-.186.464-.093.466-.093.466v.652l-.094.651v4.282h-2.606v-8.471l-.559-.093-.465-.093h-.559zm18.525 8.844h-.837l-.745-.095-.652-.092v-1.675l.093-.559.466.186.558.093h.651l.56.093.743-.093.56-.279.278-.279.188-.466-.095-.279-.093-.279-.093-.187-.185-.093-.28-.186-.186-.093-.28-.186-.372-.092-.279-.095-.28-.093-.371-.186-.28-.092-.28-.187-.278-.185-.28-.28-.28-.28-.185-.371-.093-.374-.093-.371v-.93l.093-.374.093-.372.186-.373.187-.28.186-.277.372-.28.279-.279.466-.186.371-.187.466-.186.558-.093.56-.093h1.303l.651.093.559.093v2.14l-.652-.092-.652-.186h-.65l-.746.093-.466.186-.279.373-.092.465v.186l.092.28.187.186.185.093.187.186.28.093.278.092.28.187.372.094.279.093.373.186.279.185.279.187.28.186.279.28.279.279.186.278.094.374.093.464v.838l-.093.373-.094.372-.186.372-.186.28-.279.372-.28.279-.28.187-.37.186-.374.186-.465.186-.466.185h-.558l-.466.095h-.558zM34.59 26.466v1.303l-.093.652.28-.372.278-.465.28-.28.372-.279.372-.28.466-.185.466-.187.558-.093h1.117l.465.093.466.187.372.185.28.28.279.279.279.28.093.371.186.373.094.465v8.285h-2.607v-6.795l-.093-.56-.093-.464-.28-.373-.372-.28-.465-.092-.466.093-.372.093-.373.28-.279.28-.28.278-.278.466-.187.372-.185.559v.465l-.094.559v5.119h-2.7v-8.471l-.465-.093-.558-.093h-.559l-.093-.28-.093-.28-.093-.371.093-.28.093-.278.093-.28h.466l.558-.092h.559l.465-.094h2.048zm32.209-1.303l-.56-.093-.464-.186-.28-.372-.28-.466-.092-.559.093-.465.279-.465.28-.373.465-.186.559-.093.557.093.467.186.371.373.186.465.094.465-.094.559-.186.466-.371.372-.467.186-.557.093zm1.395 1.303h-2.14l-.56.094h-.557l-.559.092h-.465l-.187.28-.093.279v.65l.093.28.187.28h.558l.559.093.465.093v8.47h2.7v-10.61z"/>
        <path fill="#92BC51" d="M105.242 6.918l-.373-.28-.465-.372-.558-.28-.466-.278-.558-.28-.56-.185-.557-.187-.652-.186-.558-.093-.652-.186h-.466l-.558-.093h-2.141l-.651.093-.559.093-.558.093-.56.186-.558.186-.558.187-.559.185-.559.28-.465.279-.558.28-.465.279-.56.279-.464.372-.56.373-.464.372-.466.465-.372.373-.373.372-.464.465-.28.372-.373.467-.371.465-.28.372-.28.465-.279.466-.28.465-.186.466-.278.465-.186.466-.28.558-.186.466-.186.558-.186.559-.093.558-.187.559-.093.465-.093.559-.093.558v1.024l-.093.466v1.582l.093.559v.465l.093.559.093.558.093.466.187.558.093.559.186.465.186.465.185.466.188.465.186.465.186.466.279.466.187.372.279.466.279.465.279.372.28.373.278.372.372.373.931 1.116.652.653.652.65.372.28.373.28.372.278.373.28.372.279.372.279.373.186.372.28.466.186 1.21.652.37.186.467.186.465.186.466.092.465.187.466.094.465.093.466.185.464.094h.466l.465.092.466.093h.466l.466.094h1.86l.466-.094h.466l.464-.093.466-.092.465-.094.467-.093.466-.092.557-.093.466-.188.465-.093.373-.185.465-.186.466-.186.465-.188.373-.278.465-.186.371-.28.467-.186.371-.28.373-.278.372-.279.373-.28.372-.372.372-.279.373-.373.372-.279.279-.373.373-.372.652-.745.279-.371.279-.374.28-.371.278-.466.187-.372.279-.465.187-.466.279-.465v-.094l.092-.186v-.838l-.092-.186-.093-.186v-.186l-.094-.186-.187-.093-.092-.093-.093-.093-.094-.094-.185-.093h-.466l-.094.093-.092.094-.093.093-.093.093-.279.465-.186.372-.28.466-.372.372-.56.838-.37.373-.281.279-.371.371-.373.374-.372.279-.373.279-.372.373-.465.279-.467.279-.371.185-.465.28-.466.186-.466.186-.465.186-.466.188-.465.185-.466.093-.557.093-.467.186h-.557l-.466.093h-.466l-.466.093h-1.395l-.466-.093h-.465l-.466-.093h-.464l-.466-.093-.466-.186-.466-.093-.465-.093-.466-.186-.464-.187-.466-.185-.465-.187-.373-.186-.465-.187-.373-.185-.372-.28-.372-.278-.466-.187-.373-.28-.372-.278-.372-.28-.373-.28-.278-.371-.373-.279-.372-.373-.28-.372-.37-.373-.281-.372-.651-.745-.28-.372-.279-.559-.373-.465-.28-.465-.185-.559-.279-.558-.187-.559-.186-.465-.185-.559-.094-.558-.185-.559-.094-.559-.093-.558v-1.024l-.094-.559.094-.558v-.559l.093-.558.094-.559.092-.65.187-.56.185-.651.186-.559.187-.652.279-.558.279-.558.373-.56.279-.557.372-.466.373-.466.372-.465.373-.465.372-.372.466-.373.465-.372.185-.187.28-.186.186-.093.28-.186.185-.186.279-.093.188-.186.278-.093.279-.186.187-.094.279-.093.186-.186.373-.093.186-.093.372-.093.279-.093.28-.094.279-.093h.278l.28-.092h.28l.279-.094h.559l-.28.094-.187.092-.278.093-.186.094-.28.093-.187.093-.278.186-.186.094-.186.185-.28.187-.186.093-.279.186-.093.093-.186.186-.094.093-.093.186-.186.093-.093.186-.093.093-.186.187-.373.465-.093.187-.279.465-.28.465-.279.466-.186.558-.186.466-.093.558-.185.559-.095.465-.093.559v1.954l.093 1.024v.466l.095.466.185.465.093.558.186.466.186.372.186.465.187.466.186.465.186.372.279.466.28.372.28.466.278.372.652.745.372.279.28.373.372.372.371.28.467.371.371.28.466.186.373.28.466.278.464.187.466.186.465.186.466.186.558.186.56.093.558.186.558.094h.559l.465.092h1.955l.558-.092.652-.094.558-.186.559-.093.559-.186.464-.28.56-.185.464-.28.466-.279.465-.28.466-.278.372-.373.56-.372.371-.465.466-.466.372-.558.373-.466.279-.465.279-.559.28-.559.186-.465.186-.558.185-.559.094-.558.185-.745.095-.744v-2.328l-.095-.558v-.559l-.185-1.024-.28-1.024-.093-.465-.185-.466-.187-.558-.186-.465-.186-.56-.186-.464-.28-.466-.279-.466-.186-.465-.28-.465-.279-.373-.372-.465-.279-.465-.28-.373-.372-.372-.279-.372-.372-.466-.373-.372-.372-.373-.373-.372-.464-.28-.373-.372-.372-.372-.466-.28-.93-.65-.466-.28-.466-.28h-.093l-.093-.092h-.559l-.093.093-.093.092v.28l.093.093v.093l.093.093v.093l.093.093h.094l.093.094.093.093.465.279.466.279.465.28.466.371.465.28.373.372.464.373.374.372.371.372.373.372.372.373.28.372.372.466.28.465.278.373.279.465.28.465.28.465.465.932.186.558.186.466.186.465.093.559.187.465.093.466.093.558.093.466v.558l.093.466v1.023l-.093.559v.651l-.093.559-.186.652-.187.651-.186.559-.279.558-.28.56-.372.557-.372.56-.466.465-.558.465-.558.465-.56.372-.65.373-.652.372-.559.187-.558.092-.56.186-.558.094-.558.093h-1.954l-.653-.093-.651-.186-.65-.186-.653-.187-.373-.093-.279-.186-.372-.093-.28-.186-.372-.187-.279-.185-.279-.187-.373-.279-.279-.186-.559-.465-.186-.28.558.28.466.185.56.187.65.185.56.094.558.093h1.675l.558-.093h.56l.464-.186.653-.186.557-.187.466-.186.56-.28.65-.371.559-.373.56-.465.464-.465.466-.466.372-.559.371-.558.373-.559.28-.558.186-.558.185-.652.187-.559.094-.558.092-.652v-1.117l-.092-.558-.094-.652-.093-.559-.094-.558-.185-.558-.187-.467-.186-.557-.279-.466-.187-.466-.279-.465-.278-.465-.28-.466-.28-.372-.371-.465-.652-.745-.279-.372-.373-.373-.372-.372-.466-.373-.372-.279-.372-.372-.466-.28-.464-.279-.466-.279-.372-.28-.56-.278-.466-.28-.464-.186-.466-.186-.465-.187-.466-.185-.465-.187-.559-.093-.465-.186-.559-.093-.465-.093-.559-.093h-.465L97.33.216h-.559l-.464-.093h-2.421l-.465.093h-.466l-.558.093-.466.093h-.464L91 .588h-.465l-.56.186-.464.093-.466.187-.465.093-.466.186-.559.186-.465.186-.466.186-.464.187-.466.185-.465.28-.372.186-.466.28-.372.186-.373.279-.465.28-.373.278-.372.28-.373.279-.465.28-.372.278-.373.372-.372.28-.651.744-.372.28-.373.372-.28.373-.373.372-.279.372-.278.372-.279.373-.745 1.117-.28.466-.186.372-.279.372-.186.465-.186.373-.28.466-.186.465-.186.465-.185.466-.095.465-.186.465-.093.466-.186.465-.093.466v.651l.093.187.186.186.186.093.188.186.185.093.28.093h.93l.373-.093.279-.093.279-.093.373-.093.186-.186.279-.093.186-.187.185-.186.188-.186.186-.279.092-.186v-.187l.094-.558.093-.466.185-.465.093-.465.095-.466.185-.465.187-.465.185-.466.186-.465.187-.373.28-.465.185-.372.279-.467.187-.372.279-.372.279-.373.28-.372.28-.372.65-.744.373-.372.371-.373.374-.372.279-.28.466-.372.371-.28.373-.279.745-.558.466-.28.371-.186.93-.558.467-.187.465-.185.466-.28.465-.092.466-.187L91 2.45l.466-.093.557-.186.466-.093.465-.094.466-.093.56-.093h.464l.466-.093h.558l.466-.093h.558l.466.093h1.024l.465.093.651.093.56.093.557.094.559.185.558.187.56.186.465.187.465.185.558.28.466.279.373.28.464.278.466.28.372.279.466.372.372.372.372.373.373.372.279.372.372.373.28.372.279.466.279.465.28.465.186.466.278.465.186.465.188.56.093.465.093.465.093.466.092.465v.93l-.092.467v.465l-.186.466-.093.465-.188.465-.186.466-.278.465-.28.465-.279.373-.372.372-.373.372-.372.373-.465.372-.466.28-.56.186-.556.279-.56.186-.557.093-.56.093-.466.094h-1.024l-.464-.094-.559-.093-.465-.093-.559-.186-.464-.186-.466-.28-.466-.279-.466-.372-.465-.28-.466-.465-.371-.372-.374-.373-.278-.465-.372-.465-.187-.466-.186-.465-.186-.559-.093-.558-.093-.652v-.93l.093-.466.093-.28.093-.279.093-.186.186-.186.094-.28.186-.371.279-.467.372-.465.373-.372.372-.372.372-.28.558-.372.56-.186.558-.28.651-.092.559-.186h1.862l.65.186.745.186.653.372h.092l.093.093h.56l.092-.093h.093l.093-.093v-.093l.093-.093v-.465l-.093-.093V7.29l-.093-.093-.093-.092-.092-.094-.094-.093zm-50.546 44.31h-.93l-.467-.094v-.93l.093-.373.466.092.466.095.465.093.652-.093.465-.373.186-.465-.093-.28-.093-.186-.28-.186-.278-.186-.28-.186-.372-.094-.28-.093-.372-.186-.279-.186-.279-.279-.187-.28-.186-.465v-.93l.186-.374.187-.371.372-.28.372-.28.373-.185.558-.094.652-.092.373.092h.465l.372.094v.837l-.093.28-.372-.093h-.466l-.372-.094-.652.186-.372.28-.187.465.094.279.093.187.279.186.28.093.278.186.28.093.373.187.372.093.279.28.28.185.185.373.187.372v.93l-.187.465-.186.374-.372.279-.372.279-.466.28-.558.092h-.652zm8.285-1.21v1.21h.279l.465-.094.466-.092.372-.187.373-.28.279-.278.372-.374.187-.371.279-.465.092-.466.094-.465v-1.21l-.094-.466-.092-.558-.186-.373-.28-.372-.187-.28-.371-.278-.28-.28-.372-.093-.465-.187h-.373l-.465-.092h-.093v1.302h.465l.372.188.373.186.279.371.185.466.095.558.093.56-.093.744-.187.558-.186.373-.279.372-.373.186-.372.187h-.372zM62.981 45.27v-1.303l-.373.092-.464.094-.374.093-.465.186-.372.28-.28.278-.278.372-.28.373-.186.465-.186.466-.093.465v1.118l.093.465.092.466.186.465.188.373.279.279.278.279.28.279.373.187.464.092.466.093h.652v-1.21h-.559l-.372-.186-.372-.28-.28-.371-.185-.466-.093-.558-.095-.559.095-.652.185-.557.186-.374.28-.371.373-.186.371-.188.372-.092.094.092zm5.957 5.864v-6.981h1.397v5.77h2.233v1.211h-3.63zm8.564.093h-.65l-.56-.093-.465-.185-.373-.28-.279-.372-.186-.374-.092-.371-.095-.372v-5.027h1.304v4.468l.093.466.093.465.279.279.466.28h1.116l.467-.188.278-.278.094-.465.093-.652v-4.375h1.396v4.282l-.093.558-.092.466-.188.464-.186.374-.279.279-.28.279-.371.187-.465.092-.466.093h-.56zm8.564-5.958v5.865H84.67V45.27h-1.862v-1.116h5.027v1.116h-1.769zm4.376-1.116h1.396v6.981h-1.396v-6.981zm7.26 5.865v1.21h.372l.465-.094.374-.092.371-.187.374-.28.371-.278.279-.374.28-.371.186-.465.093-.466.093-.465.093-.652-.093-.559v-.465l-.186-.558-.186-.373-.187-.372-.279-.28-.279-.278-.372-.28-.373-.093-.372-.187h-.466l-.465-.092h-.093v1.302h.466l.464.188.28.186.28.371.185.466.187.558v.56l-.093.744-.094.558-.279.373-.279.372-.372.186-.373.187h-.372z"/>
        <path fill="#92BC51" d="M97.702 45.27v-1.303l-.373.092-.371.094-.466.093-.372.186-.373.28-.372.278-.28.372-.28.373-.185.465-.093.466-.093.465-.093.559v.559l.093.465.093.466.186.465.187.373.28.279.278.279.373.279.372.187.371.092.467.093h.65v-1.21h-.557l-.374-.186-.371-.28-.28-.371-.185-.466-.093-.558v-.559l.093-.652.093-.557.279-.374.278-.371.28-.186.465-.188.373-.092v.092zm9.96 5.864l-.093-.092-.186-.466-.372-.558-.373-.652-.372-.652-.279-.558-.28-.373-.093-.186-.278-.559-.28-.465-.187-.466v1.211l.093.65v3.166h-1.395v-6.981h1.769l.185.185.28.466.372.653.372.65.373.745.28.466.092.186.372.558.28.56.279.558-.093-.559v-4.468h1.303v6.981h-1.77zm6.05.093h-.93l-.466-.093v-.93l.095-.373.371.092.56.095.464.093.652-.093.464-.373.094-.465v-.28l-.094-.186-.278-.186-.279-.186-.28-.186-.372-.094-.28-.093-.372-.186-.279-.186-.279-.279-.187-.28-.186-.465v-.93l.186-.374.187-.371.28-.28.464-.28.373-.185.559-.094.65-.092.374.092h.464l.374.094v.837l-.095.28-.371-.093h-.372l-.466-.094-.652.186-.372.28-.186.465.093.279.093.187.279.186.28.093.279.186.279.093.373.187.372.093.279.28.28.185.186.373.186.372v.93l-.186.465-.187.374-.372.279-.373.279-.466.28-.557.092h-.652z"/>
    </g>
</svg>
